<svg width="20" height="20" viewBox="0 0 20 20" fill="none" xmlns="http://www.w3.org/2000/svg">
<path d="M9.99916 1.21558C14.8506 1.21558 18.7835 5.14845 18.7835 9.99989C18.7835 14.8513 14.8506 18.7842 9.99916 18.7842C5.14772 18.7842 1.21484 14.8513 1.21484 9.99989C1.21484 5.14845 5.14772 1.21558 9.99916 1.21558ZM10.3325 8.49009H8.95994C8.72603 8.49009 8.53198 8.66074 8.49551 8.88434L8.48935 8.96067V9.58812C8.48935 9.82203 8.66001 10.0161 8.88361 10.0526L8.95994 10.0587H9.23445L9.23342 12.5284L8.3521 12.5293C8.11819 12.5293 7.92414 12.7 7.88767 12.9236L7.88151 12.9999V13.6273C7.88151 13.8612 8.05217 14.0553 8.27577 14.0918L8.3521 14.0979H11.6854C11.9193 14.0979 12.1134 13.9273 12.1499 13.7037L12.156 13.6273V12.9999C12.156 12.766 11.9854 12.5719 11.7618 12.5355L11.6854 12.5293L10.802 12.5284L10.8031 8.96067C10.8031 8.72677 10.6324 8.53272 10.4088 8.49624L10.3325 8.49009ZM8.70504 6.72538C8.70504 7.33181 9.19665 7.82342 9.80308 7.82342C10.4095 7.82342 10.9011 7.33181 10.9011 6.72538C10.9011 6.11895 10.4095 5.62734 9.80308 5.62734C9.19665 5.62734 8.70504 6.11895 8.70504 6.72538Z" fill="#3375DC"/>
</svg>
