<svg width="140" height="140" viewBox="0 0 140 140" fill="none" xmlns="http://www.w3.org/2000/svg">
<path opacity="0.6" d="M76.8513 61.2861H29.3984V116.545H76.8513V61.2861Z" fill="#EAEFF4"/>
<path d="M39.6914 53.1297L43.7666 52.1798L49.7088 52.1458L49.6159 91.9245L39.6914 53.1297Z" fill="#D3DADD"/>
<path d="M89.6571 98.7915H53.9974C51.4188 98.7915 49.3281 96.7008 49.3281 94.1222L49.3281 60.6695C49.3281 58.0909 51.4188 56.0002 53.9974 56.0002H89.6571C92.2357 56.0002 94.3263 58.0909 94.3263 60.6695V94.1222C94.3263 96.7008 92.2363 98.7915 89.6571 98.7915Z" fill="white"/>
<path d="M94.3271 73.0617V71.5512V99.3846H55.2312C51.9548 99.3846 49.2989 96.7287 49.2989 93.4523L49.3001 45.9124C49.3001 43.1135 47.0093 40.8232 44.2109 40.8232H89.9434C92.3645 40.8232 94.3271 42.7859 94.3271 45.207V48.2355" stroke="#8B8BB2" stroke-width="1.03813" stroke-miterlimit="10" stroke-linecap="round"/>
<path d="M49.3435 50.2966V46.2704C49.3435 43.5563 47.4616 41.123 44.7786 40.8502C41.7 40.5371 39.0781 42.9894 39.0781 46.0288V52.6884H48.9011" stroke="#8B8BB2" stroke-width="1.03813" stroke-miterlimit="10" stroke-linecap="round"/>
<path d="M54.9648 99.3849H97.1099C100.678 99.3849 103.598 96.725 103.598 93.4739V85.6084H61.4958V93.4347C61.4952 96.7077 58.5562 99.3849 54.9648 99.3849Z" fill="white" stroke="#8B8BB2" stroke-width="1.03813" stroke-miterlimit="10" stroke-linecap="round"/>
<path d="M72.8441 26.5911L72.2656 22.3999" stroke="#8B8BB2" stroke-width="1.03813" stroke-miterlimit="10" stroke-linecap="round"/>
<path d="M59.3583 59.0544C61.2971 59.0544 62.8689 57.4827 62.8689 55.5438C62.8689 53.6049 61.2971 52.0332 59.3583 52.0332C57.4194 52.0332 55.8477 53.6049 55.8477 55.5438C55.8477 57.4827 57.4194 59.0544 59.3583 59.0544Z" fill="#EAEFF4"/>
<path d="M59.9454 26.727L59.7666 26.9064C59.1132 27.5616 59.1143 28.6222 59.7695 29.2756L62.3914 31.8911C63.0465 32.5446 64.1072 32.5434 64.7606 31.8883L64.9394 31.7089C65.5928 31.0537 65.5917 29.9931 64.9365 29.3397L62.3147 26.7242C61.6595 26.0707 60.5989 26.0719 59.9454 26.727Z" stroke="#8B8BB2" stroke-width="1.03813" stroke-miterlimit="10" stroke-linecap="round"/>
<path d="M91.3835 25.7928C103.007 25.3574 111.517 33.6157 111.517 43.3551C111.517 48.8116 107.9 52.1284 103.963 55.5819C100.785 58.4137 97.3585 60.2985 97.3585 64.4429V66.5434C97.3585 66.909 97.062 67.2055 96.6964 67.2055H88.0494C87.6837 67.2055 87.3873 66.909 87.3873 66.5434V64.4429C87.3873 58.4333 89.4981 54.6695 92.7446 52.0448C96.682 48.7983 101.065 47.2561 101.065 43.0431C101.065 39.2441 96.8244 36.0224 92.0669 36.226C89.4578 36.3379 86.8699 37.7394 85.2084 40.0221C85.1743 40.0688 85.0451 40.3076 85.0451 40.3076L73.1211 40.3064C73.1211 40.3064 73.3345 39.4904 73.4712 39.1097C76.3825 30.9979 83.0889 26.1037 91.3835 25.7928ZM97.6895 75.1391C97.6895 77.7788 95.5498 79.9185 92.9101 79.9185H92.5993C89.9595 79.9185 87.8198 77.7788 87.8198 75.1391C87.8198 72.4994 89.9595 70.3597 92.5993 70.3597H92.9101C95.5498 70.3597 97.6895 72.4999 97.6895 75.1391Z" fill="url(#paint0_linear_340_171221)"/>
<path d="M82.6285 64.6005L55.8477 64.8174L55.8787 68.6544L82.6595 68.4375L82.6285 64.6005Z" fill="#EAEFF4"/>
<path d="M73.9987 74.2038L55.8477 74.3508L55.8787 78.1879L74.0298 78.0408L73.9987 74.2038Z" fill="#EAEFF4"/>
<defs>
<linearGradient id="paint0_linear_340_171221" x1="84.0184" y1="141.68" x2="93.2243" y2="31.21" gradientUnits="userSpaceOnUse">
<stop stop-color="white"/>
<stop offset="1" stop-color="#BDCBDA"/>
</linearGradient>
</defs>
</svg>
