<svg width="43" height="44" viewBox="0 0 43 44" fill="none" xmlns="http://www.w3.org/2000/svg">
<path d="M20.3554 5.86972L18.1215 21.9676L19.7758 26.5647L15.751 31.5686C15.5172 31.8592 15.5632 32.2845 15.8539 32.5183C15.9897 32.6276 16.1625 32.6801 16.3362 32.6649L21.8001 32.1869L24.0295 36.2958L7.98659 37.4656C6.12834 37.6282 4.49013 36.2536 4.32755 34.3953L2.26696 10.8427C2.10439 8.98442 3.479 7.34622 5.33726 7.18364L20.3554 5.86972ZM26.6106 5.88859L38.4908 7.13725C40.3459 7.33223 41.6917 8.99418 41.4967 10.8493L39.0254 34.3624C38.8304 36.2176 37.1685 37.5634 35.3134 37.3684L25.0901 36.2958L23.0089 31.9981L33.5258 33.1035C33.8968 33.1425 34.2292 32.8733 34.2682 32.5023C34.2851 32.3414 34.2437 32.1798 34.1516 32.0468L27.5201 22.4796C27.3076 22.173 26.8867 22.0967 26.5801 22.3093L26.5291 22.3483L22.0945 26.0929L21.3471 21.2646L26.6106 5.88859ZM12.6553 13.3242C10.7971 13.4868 9.42246 15.125 9.58504 16.9833C9.74761 18.8415 11.3858 20.2161 13.2441 20.0536C15.1023 19.891 16.4769 18.2528 16.3144 16.3945C16.1518 14.5363 14.5136 13.1617 12.6553 13.3242Z" fill="#EBEDF3"/>
</svg>
